<svg id="Capa_1" data-name="Capa 1" xmlns="http://www.w3.org/2000/svg" viewBox="0 0 19.94 17.83"><defs><style>.cls-1{fill:#e69a61;}</style></defs><title>constantine-statue</title><path class="cls-1" d="M19.92,5.73c.07-.16-.15-.31-.15-.31.1-.27,0-.73-.19-.78s-.4.11-.54.27a1,1,0,0,0-.14.52s-.16.13-.3.27a1.19,1.19,0,0,0-.22.51,4.34,4.34,0,0,1-.66.29,3.22,3.22,0,0,1-1.28,0,9.29,9.29,0,0,0-.82-.94c-.27-.24-.51-.34-.56-.51s-.3-.24-.44-.29a2.13,2.13,0,0,1-.52-.23c-.15-.1-.62.06-.81,0s-.44.19-.44.19l-.44-.26,0-.53c.17,0,.2-.24.2-.35s.06-.47.1-.81-.1-.37-.1-.37l.08-.16-.1-.38a.78.78,0,0,0,.07-.26c0-.14-.19-.28-.55-.46s-1.49-.12-1.72.6a2,2,0,0,0,.28,1.52c0,.09.22.2.23.38s.1.73,0,.82-.42-.16-.83-.17a.7.7,0,0,0-.61.33s-.66.08-.77.12,0,.17,0,.17l-.91.16a.28.28,0,0,0-.21.16,5.44,5.44,0,0,0-.74.11,4.23,4.23,0,0,1-1.38.19A18.19,18.19,0,0,0,2.55,6a2,2,0,0,0-1.23.54,7.69,7.69,0,0,0-1,1c-.17.3-.35.74-.29.77s.36-.46.36-.46a1.14,1.14,0,0,0,.06.29c0,.12.18.42.28.41s.07-.23.07-.23.09,0,.09-.08a.22.22,0,0,0-.13-.2c-.09-.06,0-.34,0-.34S.84,8,1,8s.23.08.29,0-.1-.1-.2-.15S1,7.68,1,7.58a.24.24,0,0,1,.29-.16c.14,0,.11.23.1.49s0,.27.11.3.07-.18.1-.33a1.42,1.42,0,0,1,.23-.5c.1-.14.07-.5.18-.57a6.68,6.68,0,0,1,1.58,0c.73,0,1.64,0,1.64,0s0,5.12,0,5.39a1,1,0,0,1-.1.41.66.66,0,0,0-.17.5.43.43,0,0,0,.3.37v.3a.64.64,0,0,0-.28.57.57.57,0,0,0,.27.58s.12.1.2.63a3.6,3.6,0,0,1-.09,1.15L5,16.71c-.14.05-.19.17-.23.32a3.85,3.85,0,0,1-.35.6H3.08v1.25h16V17.63h-2.7a.81.81,0,0,1-.11-.58c0-.27.27-.55.27-.76a1.06,1.06,0,0,0-.16-.52l2.39-7.49s.54.26.74.19A.28.28,0,0,0,19.69,8c-.13-.19-.41-.1-.41-.1a.37.37,0,0,0-.09-.17,1,1,0,0,0-.29-.16L19.08,7a.72.72,0,0,0,.23-.07.84.84,0,0,0,.47-.39.69.69,0,0,0,0-.6A.43.43,0,0,0,19.92,5.73ZM6.62,10.58a5.48,5.48,0,0,1-.43-1.17,4.59,4.59,0,0,1,0-1.28h.65a6,6,0,0,0,0,1.35,3.34,3.34,0,0,0,.48,1.1ZM14.4,5.09a2.64,2.64,0,0,1,1.08.5,4.47,4.47,0,0,0-1-.18,12.92,12.92,0,0,0-1.9.09A3.86,3.86,0,0,1,14.4,5.09Zm-3,.84a5.31,5.31,0,0,0,1,.11,17.65,17.65,0,0,0,2-.25,1.87,1.87,0,0,1,1.37.14s-.48,0-1.05.14-1.23.46-2,.67a1.85,1.85,0,0,1-1.52-.54,2.07,2.07,0,0,0,.9,0ZM10.08,4.55a1.72,1.72,0,0,0,.11,1,2.73,2.73,0,0,0,.87.94S9.88,6,9.72,5.4A.69.69,0,0,1,10.08,4.55Zm0,13.08H8.34a1.33,1.33,0,0,0,0-.42A.51.51,0,0,0,8,16.77c-.17,0-.23-.1-.4-.72s.34-1.07.48-1.43a3.15,3.15,0,0,0,.06-1.14h.4a1.2,1.2,0,0,0-.09.49.61.61,0,0,0,.19.41.56.56,0,0,0,.09.33.68.68,0,0,0,.38.25l0-.54a1.79,1.79,0,0,0,.21.57c.19.33.41.66.67,1.11a3.34,3.34,0,0,1,.14,1.47Zm2.79-2.69a3.21,3.21,0,0,1-.43,1.21c-.18.32-.44.76-.54.93a3.78,3.78,0,0,1-.24-.32,7.35,7.35,0,0,1-.6-1.31,1.32,1.32,0,0,1,0-.81,2,2,0,0,0,0-.8l.41.08c.22.05.33-.05.64,0a3.6,3.6,0,0,0,.87-.07A4.54,4.54,0,0,0,12.88,14.94Zm1.44,2.47-.1.11a.73.73,0,0,1-.16-.14c-.1-.11-.49-.5-.4-.85a5,5,0,0,1,.67-1.11s-.09,1-.09,1.24S14.34,17.35,14.32,17.41Zm-.55-7.89c-.45.29-.71,1-1.65,1.24s-1.8-.65-2.3-.95-1.1.28-1.1.28c.62-.63.81-.67,1.41-.33s.71.61,1.53.74c.64.11,1.07-.72,1.82-1.15A1.89,1.89,0,0,1,15,9.25,2.68,2.68,0,0,0,13.77,9.52ZM15.51,7c-.07.3-.07,2-.07,2L15,8.87a8.14,8.14,0,0,1,.24-2.07c.23-.39.88-.27.88-.27S15.58,6.74,15.51,7Zm1,5.65c0-.34,0-.78,0-1.2,0-.85-.17-3.57-.17-3.57a4.7,4.7,0,0,0,.5-.13l.47-.15a.73.73,0,0,0,.21.15l.49.22Z" transform="translate(0 -1.05)"/></svg>